HIERARCHY
ROOT Hips
{
  OFFSET 215.794 88.6758 221.917
  CHANNELS 6 Xposition Yposition Zposition Zrotation Xrotation Yrotation
  JOINT ToSpine
  {
    OFFSET -0.0105055 1.38907 -7.13956
    CHANNELS 3 Zrotation Xrotation Yrotation
    JOINT Spine
    {
      OFFSET 0.0105055 10 1
      CHANNELS 3 Zrotation Xrotation Yrotation
      JOINT Spine1
      {
        OFFSET 0 12 1.60637
        CHANNELS 3 Zrotation Xrotation Yrotation
        JOINT Neck
        {
          OFFSET 0 27 2.26658
          CHANNELS 3 Zrotation Xrotation Yrotation
          JOINT Head
          {
            OFFSET 0 9 2.12705
            CHANNELS 3 Zrotation Xrotation Yrotation
            End Site
            {
              OFFSET 0 11 2
            }
          }
        }
        JOINT LeftShoulder
        {
          OFFSET 8 19.6109 2.86452
          CHANNELS 3 Zrotation Xrotation Yrotation
          JOINT LeftArm
          {
            OFFSET 12 1 0.681055
            CHANNELS 3 Zrotation Xrotation Yrotation
            JOINT LeftForeArm
            {
              OFFSET 19 0 -1.52608
              CHANNELS 3 Zrotation Xrotation Yrotation
              JOINT LeftHand
              {
                OFFSET 23 0 0
                CHANNELS 3 Zrotation Xrotation Yrotation
                End Site
                {
                  OFFSET 10 0 0
                }
              }
            }
          }
        }
        JOINT RightShoulder
        {
          OFFSET -8 19.6109 2.86452
          CHANNELS 3 Zrotation Xrotation Yrotation
          JOINT RightArm
          {
            OFFSET -12 1 0.681055
            CHANNELS 3 Zrotation Xrotation Yrotation
            JOINT RightForeArm
            {
              OFFSET -19 0 -1.52608
              CHANNELS 3 Zrotation Xrotation Yrotation
              JOINT RightHand
              {
                OFFSET -23 0 0
                CHANNELS 3 Zrotation Xrotation Yrotation
                End Site
                {
                  OFFSET -10 0 0
                }
              }
            }
          }
        }
      }
    }
  }
  JOINT LeftUpLeg
  {
    OFFSET 9 -7.17245 0
    CHANNELS 3 Zrotation Xrotation Yrotation
    JOINT LeftLeg
    {
      OFFSET 0 -44.1113 0
      CHANNELS 3 Zrotation Xrotation Yrotation
      JOINT LeftFoot
      {
        OFFSET 0 -36.1829 0
        CHANNELS 3 Zrotation Xrotation Yrotation
        JOINT LeftToeBase
        {
          OFFSET 0 -4.84184 13
          CHANNELS 3 Zrotation Xrotation Yrotation
          End Site
          {
            OFFSET 0 1 6
          }
        }
      }
    }
  }
  JOINT RightUpLeg
  {
    OFFSET -9 -7.17245 0
    CHANNELS 3 Zrotation Xrotation Yrotation
    JOINT RightLeg
    {
      OFFSET 0 -44.0551 0
      CHANNELS 3 Zrotation Xrotation Yrotation
      JOINT RightFoot
      {
        OFFSET 0 -36.1469 0
        CHANNELS 3 Zrotation Xrotation Yrotation
        JOINT RightToeBase
        {
          OFFSET 0 -4.92256 13
          CHANNELS 3 Zrotation Xrotation Yrotation
          End Site
          {
            OFFSET 0 1 6
          }
        }
      }
    }
  }
}
MOTION
Frames:	8
Frame Time:	0.0333333
-100.979 87.3602 -93.7227 -10.6831 5.19892 -125.236 0 0 0 2.52984 24.5435 -6.93068 -3.79174 9.09584 -4.96674 7.37919 7.34536 3.89757 -7.42646 -7.93138 7.79113 5.91222 0.509034 -11.968 -21.452 -9.63834 -40.787 35.8539 3.03791 -85.8057 -7.9398 0.147237 -2.12136 4.76072 2.42863 15.5217 44.0256 -12.1879 -26.0203 -13.6375 2.70988 78.973 -2.92817 0.0729795 -2.85478 8.26253 -32.0346 19.9831 3.56636e-006 83.0381 -18.1875 26.399 10.4761 -2.46355 1.63261 -21.0524 -3.47024 -18.2357 -40.1739 -31.3043 6.3688e-007 57.7596 -15.4147 -29.1308 4.93274 1.28244 4.3481 -16.8308 -7.30211 
-104.993 86.6137 -98.5135 -9.48543 4.28024 -122.901 0 0 0 4.01763 26.6822 -8.23162 -2.91431 8.55155 -5.76627 6.86095 8.38925 4.11979 -7.55854 -8.96761 7.86563 7.52571 0.316865 -13.3982 -26.4528 -11.7099 -50.729 37.7308 12.1204 -74.8176 -7.48713 0.128827 -1.96872 3.1442 2.02492 14.4004 44.367 -12.9464 -15.4863 -16.8387 2.15461 82.9189 -7.81295 0.221557 -3.24365 13.1425 -35.9154 28.0254 -3.64815e-006 88.2166 -6.84753 24.9495 5.01252 -1.1096 1.65985 -23.176 -1.74622 -21.3006 -38.0104 -40.4899 -1.47916e-008 42.7933 -1.42023 -25.7642 8.71296 1.99632 4.56425 -17.4045 -4.41492 
-108.81 84.7981 -103.489 -9.13259 3.43068 -121.297 0 0 0 4.18845 28.2128 -8.58055 -3.10332 9.32749 -5.78461 8.55954 7.45058 3.33545 -8.10554 -7.35092 7.80122 5.67132 0.64105 -14.7583 -31.331 -10.4319 -60.4901 39.0854 23.2561 -64.0754 -7.29836 -0.0522748 0.819643 4.60243 1.99713 12.361 47.337 -10.3694 2.88986 -19.5977 3.16848 81.1757 -7.61629 0.0813171 -1.22161 19.4904 -39.4784 38.0686 -180 89.9606 172.678 24.6488 -3.16652 0.691994 1.59809 -19.672 -3.78882 -22.9058 -36.2886 -43.0513 -9.71056e-009 35.8447 -1.24161 -25.0309 8.10755 1.80256 4.31197 -16.4462 -5.45778 
-112.506 82.3223 -108.023 -9.42859 3.88356 -119.97 0 0 0 6.14411 29.6838 -8.50359 -3.87539 11.0943 -5.53838 10.2185 8.02572 1.59834 -8.58011 -9.17611 6.66667 4.12768 1.0268 -17.5168 -35.3229 -8.108 -67.2098 36.0737 35.4267 -51.4914 -6.59063 -0.092922 1.61375 6.08792 2.10587 11.6383 50.0075 -7.60968 21.0744 -23.6488 7.54736 73.3038 -6.81732 0.0411435 -0.690752 26.9307 -42.5948 48.0573 2.79018e-005 88.7894 -17.4613 23.188 0.118939 -0.0244018 1.59812 -18.5817 -4.31287 -24.7796 -35.221 -42.0313 1.04302e-007 39.4767 -6.13599 -23.021 10.5657 2.15749 4.16974 -15.8987 -6.43284 
-116.429 78.6517 -112.552 -9.57683 4.11394 -120.658 0 0 0 6.7974 31.3941 -7.0777 -3.39207 12.0501 -4.62756 9.10738 7.90226 1.15726 -7.02528 -9.33837 5.56023 0.0435379 1.85955 -18.3408 -33.4174 -3.60061 -71.5314 26.7103 40.1394 -37.9733 -5.82635 -0.133436 2.62168 5.46753 2.17094 12.7401 51.2983 -4.91872 37.6304 -25.0675 17.8216 56.8023 -7.54938 0.0346937 -0.525848 35.293 -44.4687 60.1782 -6.3716e-006 86.4821 -23.6346 18.6264 0.998151 -0.163693 1.68899 -15.5364 -6.10259 -30.926 -39.521 -49.7678 -1.97476e-007 57.1488 -5.9699 -36.9138 6.60718 2.20738 3.59944 -13.1747 -8.83252 
-120 74.339 -116.683 -11.284 5.85826 -122.122 0 0 0 7.49657 34.7017 -6.11351 -4.57307 12.8671 -2.44516 8.48137 5.46068 0.977377 -6.89616 -8.82336 4.96793 -4.39805 2.80813 -18.9857 -29.9005 -0.71363 -74.6489 20.4891 41.2799 -29.0554 -7.23755 -0.22109 3.49477 3.84137 2.39607 16.5375 47.2893 -4.39586 51.6495 -14.0913 23.3101 32.3895 -10.0604 0.000371739 -0.00422338 42.1817 -43.9124 69.0315 -3.61333e-006 83.5466 -26.0419 16.44 -0.00777535 0.00112322 1.59739 -12.671 -5.74175 -35.822 -41.6006 -52.3332 -6.04059e-008 74.8889 -8.13966 -36.5704 -0.156713 -0.0517831 4.18113 -15.9682 -6.6216 
-123.681 70.6395 -120.527 -10.2592 8.74073 -124.136 0 0 0 10.7163 37.2353 -6.02397 -5.65319 15.0022 -0.596633 9.13486 -0.440519 1.05883 -6.80228 -6.40447 4.90539 -8.04659 3.63586 -19.5339 -26.3142 -0.250955 -78.9198 9.87823 41.4825 -15.9629 -6.42651 -0.190327 3.3892 3.73189 2.73844 19.5149 32.6686 -1.70509 63.5547 -3.13339 16.8227 10.6054 -5.50507 0.0290145 -0.603486 49.6874 -44.3919 73.2676 -3.89015e-006 80.3354 -26.8156 16.3176 0.490647 -0.0703436 1.62901 -15.3173 -5.57521 -36.2495 -43.0666 -54.5241 -1.4712e-006 87.0773 -9.39427 -39.3457 -3.22306 -1.15257 5.33506 -22.4199 -9.76922 
-127.449 67.1236 -124.091 -8.76645 8.34857 -125.753 0 0 0 9.0828 38.2841 -4.4459 -4.81332 16.6545 0.402346 11.7169 -5.93266 1.31413 -8.04727 -3.59779 5.72822 -7.97283 3.68842 -19.9546 -25.2666 -0.248349 -82.048 0.919548 37.219 -6.0005 -8.43811 -0.297756 4.03463 4.24016 2.88416 19.8364 21.9388 -2.51392 72.6 4.70326 10.4286 -2.5551 -3.23209 -2.82254e-005 0.00100041 53.8593 -46.8392 74.5312 -8.57869e-006 78.632 -28.3441 14.521 0.714106 -0.0909801 1.43005 -11.3041 -4.74587 -40.7375 -44.6937 -58.2254 180 81.6678 171.351 -37.4588 -8.40286 -2.85354 5.93141 -25.4938 -9.74968 
